<svg width="121" height="120" viewBox="0 0 121 120" fill="none" xmlns="http://www.w3.org/2000/svg">
<path d="M29.6166 36.72C29.916 36.976 30.1621 37.2886 30.3407 37.6397C30.5193 37.9909 30.6271 38.3738 30.6577 38.7666C30.6883 39.1594 30.6413 39.5544 30.5193 39.929C30.3973 40.3036 30.2027 40.6506 29.9466 40.95L13.6206 60L29.9406 79.05C30.2144 79.3463 30.4256 79.6949 30.5616 80.0747C30.6976 80.4546 30.7555 80.858 30.732 81.2608C30.7084 81.6636 30.6039 82.0575 30.4246 82.4189C30.2453 82.7804 29.9949 83.102 29.6885 83.3644C29.382 83.6269 29.0258 83.8248 28.641 83.9464C28.2563 84.068 27.851 84.1107 27.4494 84.072C27.0478 84.0333 26.6581 83.914 26.3036 83.7212C25.9492 83.5284 25.6373 83.2661 25.3866 82.95L7.38658 61.95C6.92179 61.4066 6.66638 60.715 6.66638 60C6.66638 59.2849 6.92179 58.5934 7.38658 58.05L25.3866 37.05C25.6426 36.7505 25.9552 36.5045 26.3064 36.3258C26.6575 36.1472 27.0404 36.0395 27.4332 36.0088C27.826 35.9782 28.221 36.0252 28.5956 36.1472C28.9703 36.2693 29.3172 36.4639 29.6166 36.72ZM91.3866 79.05C90.8694 79.6547 90.6136 80.44 90.6755 81.2333C90.7374 82.0266 91.1119 82.7628 91.7166 83.28C92.3213 83.7971 93.1066 84.0529 93.8999 83.991C94.6932 83.9291 95.4294 83.5547 95.9466 82.95L113.947 61.95C114.411 61.4066 114.667 60.715 114.667 60C114.667 59.2849 114.411 58.5934 113.947 58.05L95.9466 37.05C95.6905 36.7506 95.378 36.5045 95.0268 36.3259C94.6756 36.1473 94.2927 36.0395 93.8999 36.0089C93.5071 35.9783 93.1122 36.0253 92.7375 36.1473C92.3629 36.2693 92.016 36.4639 91.7166 36.72C91.4172 36.976 91.1711 37.2886 90.9925 37.6398C90.8139 37.9909 90.7062 38.3738 90.6755 38.7666C90.6449 39.1594 90.6919 39.5544 90.8139 39.929C90.9359 40.3036 91.1305 40.6506 91.3866 40.95L107.719 60L91.3866 79.05ZM36.6666 66C38.2579 66 39.784 65.3678 40.9092 64.2426C42.0344 63.1174 42.6666 61.5913 42.6666 60C42.6666 58.4087 42.0344 56.8825 40.9092 55.7573C39.784 54.6321 38.2579 54 36.6666 54C35.0753 54 33.5492 54.6321 32.4239 55.7573C31.2987 56.8825 30.6666 58.4087 30.6666 60C30.6666 61.5913 31.2987 63.1174 32.4239 64.2426C33.5492 65.3678 35.0753 66 36.6666 66ZM66.6666 60C66.6666 61.5913 66.0344 63.1174 64.9092 64.2426C63.784 65.3678 62.2579 66 60.6666 66C59.0753 66 57.5492 65.3678 56.4239 64.2426C55.2987 63.1174 54.6666 61.5913 54.6666 60C54.6666 58.4087 55.2987 56.8825 56.4239 55.7573C57.5492 54.6321 59.0753 54 60.6666 54C62.2579 54 63.784 54.6321 64.9092 55.7573C66.0344 56.8825 66.6666 58.4087 66.6666 60ZM84.6666 66C86.2579 66 87.784 65.3678 88.9092 64.2426C90.0344 63.1174 90.6666 61.5913 90.6666 60C90.6666 58.4087 90.0344 56.8825 88.9092 55.7573C87.784 54.6321 86.2579 54 84.6666 54C83.0753 54 81.5492 54.6321 80.4239 55.7573C79.2987 56.8825 78.6666 58.4087 78.6666 60C78.6666 61.5913 79.2987 63.1174 80.4239 64.2426C81.5492 65.3678 83.0753 66 84.6666 66Z" fill="url(#paint0_linear_322_2690)"/>
<defs>
<linearGradient id="paint0_linear_322_2690" x1="6.66638" y1="35.9998" x2="42.4019" y2="116.261" gradientUnits="userSpaceOnUse">
<stop stop-color="#9747FF"/>
<stop offset="1" stop-color="#44006D"/>
</linearGradient>
</defs>
</svg>
