<svg width="60" height="60" viewBox="0 0 60 60" fill="none" xmlns="http://www.w3.org/2000/svg">
<path d="M32.1 39.9L39.9 32.1C40.5 31.5 40.8 30.8 40.8 30C40.8 29.2 40.5 28.5 39.9 27.9L32.025 20.025C31.475 19.475 30.787 19.212 29.961 19.236C29.135 19.26 28.448 19.548 27.9 20.1C27.35 20.65 27.075 21.35 27.075 22.2C27.075 23.05 27.35 23.75 27.9 24.3L30.6 27H20.925C20.075 27 19.375 27.288 18.825 27.864C18.275 28.44 18 29.152 18 30C18 30.85 18.288 31.563 18.864 32.139C19.44 32.715 20.152 33.002 21 33H30.6L27.825 35.775C27.275 36.325 27.012 37.013 27.036 37.839C27.06 38.665 27.348 39.352 27.9 39.9C28.45 40.45 29.15 40.725 30 40.725C30.85 40.725 31.55 40.45 32.1 39.9ZM30 60C25.85 60 21.95 59.212 18.3 57.636C14.65 56.06 11.475 53.923 8.775 51.225C6.075 48.525 3.938 45.35 2.364 41.7C0.79 38.05 0.002 34.15 0 30C0 25.85 0.788 21.95 2.364 18.3C3.94 14.65 6.077 11.475 8.775 8.775C11.475 6.075 14.65 3.938 18.3 2.364C21.95 0.79 25.85 0.002 30 0C34.15 0 38.05 0.788 41.7 2.364C45.35 3.94 48.525 6.077 51.225 8.775C53.925 11.475 56.063 14.65 57.639 18.3C59.215 21.95 60.002 25.85 60 30C60 34.15 59.212 38.05 57.636 41.7C56.06 45.35 53.923 48.525 51.225 51.225C48.525 53.925 45.35 56.063 41.7 57.639C38.05 59.215 34.15 60.002 30 60ZM30 54C36.65 54 42.313 51.663 46.989 46.989C51.665 42.315 54.002 36.652 54 30C54 23.35 51.663 17.687 46.989 13.011C42.315 8.335 36.652 5.998 30 6C23.35 6 17.687 8.337 13.011 13.011C8.335 17.685 5.998 23.348 6 30C6 36.65 8.337 42.313 13.011 46.989C17.685 51.665 23.348 54.002 30 54Z" fill="#EFEFEF"/>
</svg>
