<svg width="48" height="48" viewBox="0 0 48 48" fill="none" xmlns="http://www.w3.org/2000/svg">
<rect width="48" height="48" rx="24" fill="#44006D" fill-opacity="0.3"/>
<path d="M18.4503 35.5257C18.1501 35.2095 18 34.8351 18 34.4025C18 33.97 18.1501 33.596 18.4503 33.2806L27.2471 24.0158L18.4203 14.7194C18.1401 14.4242 18 14.0553 18 13.6126C18 13.17 18.1501 12.7905 18.4503 12.4743C18.7506 12.1581 19.106 12 19.5168 12C19.9275 12 20.2826 12.1581 20.582 12.4743L30.6697 23.1304C30.7898 23.2569 30.8751 23.3939 30.9255 23.5415C30.976 23.6891 31.0008 23.8472 31 24.0158C31 24.1845 30.9748 24.3426 30.9243 24.4901C30.8739 24.6377 30.789 24.7747 30.6697 24.9012L20.552 35.5573C20.2717 35.8524 19.9263 36 19.5156 36C19.1048 36 18.7498 35.8419 18.4503 35.5257Z" fill="#EFEFEF"/>
</svg>
