<svg width="48" height="48" viewBox="0 0 48 48" fill="none" xmlns="http://www.w3.org/2000/svg">
<rect width="48" height="48" rx="24" transform="matrix(-1 0 0 1 48 0)" fill="#44006D" fill-opacity="0.3"/>
<path d="M29.5497 35.5257C29.8499 35.2095 30 34.8351 30 34.4025C30 33.97 29.8499 33.596 29.5497 33.2806L20.7529 24.0158L29.5797 14.7194C29.8599 14.4242 30 14.0553 30 13.6126C30 13.17 29.8499 12.7905 29.5497 12.4743C29.2494 12.1581 28.894 12 28.4832 12C28.0725 12 27.7174 12.1581 27.418 12.4743L17.3303 23.1304C17.2102 23.2569 17.1249 23.3939 17.0745 23.5415C17.024 23.6891 16.9992 23.8472 17 24.0158C17 24.1845 17.0252 24.3426 17.0757 24.4901C17.1261 24.6377 17.211 24.7747 17.3303 24.9012L27.448 35.5573C27.7283 35.8524 28.0737 36 28.4844 36C28.8952 36 29.2502 35.8419 29.5497 35.5257Z" fill="#EFEFEF"/>
</svg>
