<svg width="60" height="60" viewBox="0 0 60 60" fill="none" xmlns="http://www.w3.org/2000/svg">
<path d="M27.9 39.9L20.1 32.1C19.5 31.5 19.2 30.8 19.2 30C19.2 29.2 19.5 28.5 20.1 27.9L27.975 20.025C28.525 19.475 29.213 19.212 30.039 19.236C30.865 19.26 31.552 19.548 32.1 20.1C32.65 20.65 32.925 21.35 32.925 22.2C32.925 23.05 32.65 23.75 32.1 24.3L29.4 27H39.075C39.925 27 40.625 27.288 41.175 27.864C41.725 28.44 42 29.152 42 30C42 30.85 41.712 31.563 41.136 32.139C40.56 32.715 39.848 33.002 39 33H29.4L32.175 35.775C32.725 36.325 32.988 37.013 32.964 37.839C32.94 38.665 32.652 39.352 32.1 39.9C31.55 40.45 30.85 40.725 30 40.725C29.15 40.725 28.45 40.45 27.9 39.9ZM30 60C34.15 60 38.05 59.212 41.7 57.636C45.35 56.06 48.525 53.923 51.225 51.225C53.925 48.525 56.062 45.35 57.636 41.7C59.21 38.05 59.998 34.15 60 30C60 25.85 59.212 21.95 57.636 18.3C56.06 14.65 53.923 11.475 51.225 8.775C48.525 6.075 45.35 3.938 41.7 2.364C38.05 0.79 34.15 0.002 30 0C25.85 0 21.95 0.788 18.3 2.364C14.65 3.94 11.475 6.077 8.775 8.775C6.075 11.475 3.93701 14.65 2.36101 18.3C0.785007 21.95 -0.00199509 25.85 3.8147e-06 30C3.8147e-06 34.15 0.788006 38.05 2.36401 41.7C3.94001 45.35 6.077 48.525 8.775 51.225C11.475 53.925 14.65 56.063 18.3 57.639C21.95 59.215 25.85 60.002 30 60ZM30 54C23.35 54 17.687 51.663 13.011 46.989C8.335 42.315 5.998 36.652 6 30C6 23.35 8.33701 17.687 13.011 13.011C17.685 8.335 23.348 5.998 30 6C36.65 6 42.313 8.337 46.989 13.011C51.665 17.685 54.002 23.348 54 30C54 36.65 51.663 42.313 46.989 46.989C42.315 51.665 36.652 54.002 30 54Z" fill="#EFEFEF"/>
</svg>
