<svg width="103" height="96" viewBox="0 0 103 96" fill="none" xmlns="http://www.w3.org/2000/svg">
<path d="M30.5 0C27.3174 0 24.2652 1.26428 22.0147 3.51472C19.7643 5.76515 18.5 8.8174 18.5 12V54H24.5V12C24.5 10.4087 25.1321 8.88258 26.2574 7.75736C27.3826 6.63214 28.9087 6 30.5 6H72.5C74.0913 6 75.6174 6.63214 76.7426 7.75736C77.8679 8.88258 78.5 10.4087 78.5 12V78H60.5V84H84.5C89.2739 84 93.8523 82.1036 97.2279 78.7279C100.604 75.3523 102.5 70.7739 102.5 66V54H84.5V12C84.5 8.8174 83.2357 5.76515 80.9853 3.51472C78.7348 1.26428 75.6826 0 72.5 0H30.5ZM96.5 66C96.5 69.1826 95.2357 72.2348 92.9853 74.4853C90.7348 76.7357 87.6826 78 84.5 78V60H96.5V66ZM39.5 18C38.7043 18 37.9413 18.3161 37.3787 18.8787C36.8161 19.4413 36.5 20.2044 36.5 21C36.5 21.7956 36.8161 22.5587 37.3787 23.1213C37.9413 23.6839 38.7043 24 39.5 24H63.5C64.2957 24 65.0587 23.6839 65.6213 23.1213C66.1839 22.5587 66.5 21.7956 66.5 21C66.5 20.2044 66.1839 19.4413 65.6213 18.8787C65.0587 18.3161 64.2957 18 63.5 18H39.5ZM36.5 33C36.5 32.2043 36.8161 31.4413 37.3787 30.8787C37.9413 30.3161 38.7043 30 39.5 30H63.5C64.2957 30 65.0587 30.3161 65.6213 30.8787C66.1839 31.4413 66.5 32.2043 66.5 33C66.5 33.7957 66.1839 34.5587 65.6213 35.1213C65.0587 35.6839 64.2957 36 63.5 36H39.5C38.7043 36 37.9413 35.6839 37.3787 35.1213C36.8161 34.5587 36.5 33.7957 36.5 33ZM45.5 60C47.8869 60 50.1761 60.9482 51.864 62.636C53.5518 64.3239 54.5 66.6131 54.5 69V87C54.5 89.3869 53.5518 91.6761 51.864 93.364C50.1761 95.0518 47.8869 96 45.5 96H9.5C7.11305 96 4.82387 95.0518 3.13604 93.364C1.44821 91.6761 0.5 89.3869 0.5 87V69C0.5 66.6131 1.44821 64.3239 3.13604 62.636C4.82387 60.9482 7.11305 60 9.5 60H45.5ZM48.5 87V81C46.1131 81 43.8239 81.9482 42.136 83.636C40.4482 85.3239 39.5 87.6131 39.5 90H45.5C45.5 89.2044 45.8161 88.4413 46.3787 87.8787C46.9413 87.3161 47.7043 87 48.5 87ZM48.5 69C47.7043 69 46.9413 68.6839 46.3787 68.1213C45.8161 67.5587 45.5 66.7956 45.5 66H39.5C39.5 68.3869 40.4482 70.6761 42.136 72.364C43.8239 74.0518 46.1131 75 48.5 75V69ZM9.5 66C9.5 66.7956 9.18393 67.5587 8.62132 68.1213C8.05871 68.6839 7.29565 69 6.5 69V75C8.88695 75 11.1761 74.0518 12.864 72.364C14.5518 70.6761 15.5 68.3869 15.5 66H9.5ZM6.5 87C7.29565 87 8.05871 87.3161 8.62132 87.8787C9.18393 88.4413 9.5 89.2044 9.5 90H15.5C15.5 87.6131 14.5518 85.3239 12.864 83.636C11.1761 81.9482 8.88695 81 6.5 81V87ZM27.5 69C25.1131 69 22.8239 69.9482 21.136 71.636C19.4482 73.3239 18.5 75.6131 18.5 78C18.5 80.3869 19.4482 82.6761 21.136 84.364C22.8239 86.0518 25.1131 87 27.5 87C29.8869 87 32.1761 86.0518 33.864 84.364C35.5518 82.6761 36.5 80.3869 36.5 78C36.5 75.6131 35.5518 73.3239 33.864 71.636C32.1761 69.9482 29.8869 69 27.5 69Z" fill="url(#paint0_linear_322_2689)"/>
<defs>
<linearGradient id="paint0_linear_322_2689" x1="0.5" y1="0" x2="96.3239" y2="101.813" gradientUnits="userSpaceOnUse">
<stop stop-color="#9747FF"/>
<stop offset="1" stop-color="#44006D"/>
</linearGradient>
</defs>
</svg>
