<svg width="121" height="120" viewBox="0 0 121 120" fill="none" xmlns="http://www.w3.org/2000/svg">
<path d="M36.5 12C33.3174 12 30.2652 13.2643 28.0147 15.5147C25.7643 17.7652 24.5 20.8174 24.5 24V66H30.5V24C30.5 22.4087 31.1321 20.8826 32.2574 19.7574C33.3826 18.6321 34.9087 18 36.5 18H78.5C80.0913 18 81.6174 18.6321 82.7426 19.7574C83.8679 20.8826 84.5 22.4087 84.5 24V90H66.5V96H90.5C95.2739 96 99.8523 94.1036 103.228 90.7279C106.604 87.3523 108.5 82.7739 108.5 78V66H90.5V24C90.5 20.8174 89.2357 17.7652 86.9853 15.5147C84.7348 13.2643 81.6826 12 78.5 12H36.5ZM102.5 78C102.5 81.1826 101.236 84.2348 98.9853 86.4853C96.7348 88.7357 93.6826 90 90.5 90V72H102.5V78ZM45.5 30C44.7043 30 43.9413 30.3161 43.3787 30.8787C42.8161 31.4413 42.5 32.2044 42.5 33C42.5 33.7956 42.8161 34.5587 43.3787 35.1213C43.9413 35.6839 44.7043 36 45.5 36H69.5C70.2957 36 71.0587 35.6839 71.6213 35.1213C72.1839 34.5587 72.5 33.7956 72.5 33C72.5 32.2044 72.1839 31.4413 71.6213 30.8787C71.0587 30.3161 70.2957 30 69.5 30H45.5ZM42.5 45C42.5 44.2043 42.8161 43.4413 43.3787 42.8787C43.9413 42.3161 44.7043 42 45.5 42H69.5C70.2957 42 71.0587 42.3161 71.6213 42.8787C72.1839 43.4413 72.5 44.2043 72.5 45C72.5 45.7957 72.1839 46.5587 71.6213 47.1213C71.0587 47.6839 70.2957 48 69.5 48H45.5C44.7043 48 43.9413 47.6839 43.3787 47.1213C42.8161 46.5587 42.5 45.7957 42.5 45ZM51.5 72C53.8869 72 56.1761 72.9482 57.864 74.636C59.5518 76.3239 60.5 78.6131 60.5 81V99C60.5 101.387 59.5518 103.676 57.864 105.364C56.1761 107.052 53.8869 108 51.5 108H15.5C13.1131 108 10.8239 107.052 9.13604 105.364C7.44821 103.676 6.5 101.387 6.5 99V81C6.5 78.6131 7.44821 76.3239 9.13604 74.636C10.8239 72.9482 13.1131 72 15.5 72H51.5ZM54.5 99V93C52.1131 93 49.8239 93.9482 48.136 95.636C46.4482 97.3239 45.5 99.6131 45.5 102H51.5C51.5 101.204 51.8161 100.441 52.3787 99.8787C52.9413 99.3161 53.7043 99 54.5 99ZM54.5 81C53.7043 81 52.9413 80.6839 52.3787 80.1213C51.8161 79.5587 51.5 78.7956 51.5 78H45.5C45.5 80.3869 46.4482 82.6761 48.136 84.364C49.8239 86.0518 52.1131 87 54.5 87V81ZM15.5 78C15.5 78.7956 15.1839 79.5587 14.6213 80.1213C14.0587 80.6839 13.2956 81 12.5 81V87C14.8869 87 17.1761 86.0518 18.864 84.364C20.5518 82.6761 21.5 80.3869 21.5 78H15.5ZM12.5 99C13.2956 99 14.0587 99.3161 14.6213 99.8787C15.1839 100.441 15.5 101.204 15.5 102H21.5C21.5 99.6131 20.5518 97.3239 18.864 95.636C17.1761 93.9482 14.8869 93 12.5 93V99ZM33.5 81C31.1131 81 28.8239 81.9482 27.136 83.636C25.4482 85.3239 24.5 87.6131 24.5 90C24.5 92.3869 25.4482 94.6761 27.136 96.364C28.8239 98.0518 31.1131 99 33.5 99C35.8869 99 38.1761 98.0518 39.864 96.364C41.5518 94.6761 42.5 92.3869 42.5 90C42.5 87.6131 41.5518 85.3239 39.864 83.636C38.1761 81.9482 35.8869 81 33.5 81Z" fill="url(#paint0_linear_322_2688)"/>
<defs>
<linearGradient id="paint0_linear_322_2688" x1="6.5" y1="12" x2="102.324" y2="113.813" gradientUnits="userSpaceOnUse">
<stop stop-color="#9747FF"/>
<stop offset="1" stop-color="#44006D"/>
</linearGradient>
</defs>
</svg>
