<svg width="121" height="120" viewBox="0 0 121 120" fill="none" xmlns="http://www.w3.org/2000/svg">
<path d="M57.0833 41.25C57.0833 40.2554 57.4784 39.3016 58.1817 38.5984C58.8849 37.8951 59.8388 37.5 60.8333 37.5H79.5833C80.5779 37.5 81.5317 37.8951 82.235 38.5984C82.9382 39.3016 83.3333 40.2554 83.3333 41.25V60C83.3333 60.9946 82.9382 61.9484 82.235 62.6517C81.5317 63.3549 80.5779 63.75 79.5833 63.75C78.5888 63.75 77.6349 63.3549 76.9317 62.6517C76.2284 61.9484 75.8333 60.9946 75.8333 60V50.3025L55.9883 70.155C55.6397 70.5037 55.2257 70.7802 54.7702 70.9689C54.3146 71.1576 53.8264 71.2547 53.3333 71.2547C52.8402 71.2547 52.352 71.1576 51.8964 70.9689C51.4409 70.7802 51.027 70.5037 50.6783 70.155C50.3297 69.8063 50.0531 69.3924 49.8644 68.9369C49.6757 68.4813 49.5786 67.9931 49.5786 67.5C49.5786 67.0069 49.6757 66.5187 49.8644 66.0631C50.0531 65.6076 50.3297 65.1937 50.6783 64.845L70.5308 45H60.8333C59.8388 45 58.8849 44.6049 58.1817 43.9016C57.4784 43.1984 57.0833 42.2446 57.0833 41.25ZM31.8308 27.69C33.0965 23.9874 35.4885 20.7733 38.6718 18.4978C41.8551 16.2223 45.6703 14.9993 49.5833 15H87.0833C92.0561 15 96.8253 16.9754 100.342 20.4917C103.858 24.0081 105.833 28.7772 105.833 33.75V71.25C105.833 79.485 100.523 86.475 93.1433 89.0025V91.7325C93.1433 94.245 92.2658 97.455 90.2033 100.103C88.0358 102.893 84.5933 105 79.8758 105H36.6008C33.8677 105.019 31.158 104.494 28.6293 103.457C26.1006 102.42 23.8034 100.89 21.8711 98.9569C19.9387 97.0239 18.4099 94.7261 17.3734 92.197C16.3369 89.668 15.8134 86.9581 15.8333 84.225V40.9725C15.8333 36.855 17.3108 33.4275 19.9283 31.05C22.4783 28.7325 25.8158 27.6975 29.1008 27.6975H31.8308V27.69ZM30.8333 35.19H29.1083C27.6011 35.1297 26.1254 35.6323 24.9683 36.6C24.0833 37.4025 23.3333 38.73 23.3333 40.965V84.2325C23.3333 91.68 29.1533 97.5075 36.6083 97.5075H79.8758C82.1183 97.5075 83.4308 96.6 84.2858 95.4975C85.1118 94.4109 85.5832 93.0964 85.6358 91.7325V90H49.5833C44.6105 90 39.8414 88.0246 36.3251 84.5083C32.8088 80.9919 30.8333 76.2228 30.8333 71.25V35.19ZM49.5833 22.5C46.5996 22.5 43.7381 23.6853 41.6284 25.795C39.5186 27.9048 38.3333 30.7663 38.3333 33.75V71.25C38.3333 74.2337 39.5186 77.0952 41.6284 79.205C43.7381 81.3147 46.5996 82.5 49.5833 82.5H87.0833C90.067 82.5 92.9285 81.3147 95.0383 79.205C97.148 77.0952 98.3333 74.2337 98.3333 71.25V33.75C98.3333 30.7663 97.148 27.9048 95.0383 25.795C92.9285 23.6853 90.067 22.5 87.0833 22.5H49.5833Z" fill="url(#paint0_linear_322_2692)"/>
<defs>
<linearGradient id="paint0_linear_322_2692" x1="15.8328" y1="15" x2="105.833" y2="105.001" gradientUnits="userSpaceOnUse">
<stop stop-color="#9747FF"/>
<stop offset="1" stop-color="#44006D"/>
</linearGradient>
</defs>
</svg>
