<svg width="121" height="120" viewBox="0 0 121 120" fill="none" xmlns="http://www.w3.org/2000/svg">
<path d="M32.996 28.26C39.8453 22.3046 48.4461 18.7392 57.5 18.102V27C57.5 27.7956 57.8161 28.5587 58.3787 29.1213C58.9413 29.6839 59.7043 30 60.5 30C61.2957 30 62.0587 29.6839 62.6213 29.1213C63.1839 28.5587 63.5 27.7956 63.5 27V18.108C73.0599 18.7934 82.0982 22.7265 89.1154 29.2548C96.1327 35.7832 100.707 44.5144 102.08 54H90.5C89.7044 54 88.9413 54.3161 88.3787 54.8787C87.8161 55.4413 87.5 56.2043 87.5 57C87.5 57.7957 87.8161 58.5587 88.3787 59.1213C88.9413 59.6839 89.7044 60 90.5 60H102.5C102.493 65.7976 101.314 71.5339 99.0342 76.8645C96.7545 82.1951 93.4211 87.01 89.234 91.02C88.6826 91.5721 88.3679 92.3172 88.3568 93.0975C88.3458 93.8777 88.6391 94.6315 89.1746 95.199C89.7101 95.7665 90.4456 96.1031 91.2252 96.1372C92.0047 96.1714 92.7669 95.9005 93.35 95.382C98.1318 90.8116 101.939 85.3208 104.543 79.2401C107.146 73.1594 108.493 66.6147 108.5 60C108.5 47.2696 103.443 35.0606 94.4411 26.0589C85.4394 17.0571 73.2304 12 60.5 12C47.7696 12 35.5606 17.0571 26.5589 26.0589C17.5571 35.0606 12.5 47.2696 12.5 60C12.5 73.77 18.62 86.64 27.878 95.382C28.1648 95.6523 28.502 95.8634 28.8704 96.0033C29.2388 96.1432 29.6312 96.2093 30.0251 96.1975C30.419 96.1858 30.8067 96.0967 31.1662 95.9351C31.5256 95.7736 31.8497 95.5428 32.12 95.256C32.3903 94.9692 32.6014 94.632 32.7413 94.2636C32.8812 93.8952 32.9472 93.5028 32.9355 93.1089C32.9238 92.715 32.8347 92.3273 32.6731 91.9678C32.5116 91.6084 32.2808 91.2843 31.994 91.014C23.87 83.34 18.5 72.018 18.5 60H30.5C31.2956 60 32.0587 59.6839 32.6213 59.1213C33.1839 58.5587 33.5 57.7957 33.5 57C33.5 56.2043 33.1839 55.4413 32.6213 54.8787C32.0587 54.3161 31.2956 54 30.5 54H18.92C20.0646 46.0369 23.481 38.5727 28.76 32.502L37.376 41.124C37.9393 41.6873 38.7033 42.0038 39.5 42.0038C40.2967 42.0038 41.0607 41.6873 41.624 41.124C42.1873 40.5607 42.5038 39.7967 42.5038 39C42.5038 38.2033 42.1873 37.4393 41.624 36.876L32.996 28.26ZM81.194 34.842C81.7392 34.409 82.4181 34.1791 83.1143 34.1917C83.8104 34.2044 84.4805 34.4588 85.0096 34.9113C85.5388 35.3638 85.8941 35.9863 86.0145 36.6721C86.135 37.3579 86.0132 38.0642 85.67 38.67L85.01 39.846C82.5971 44.1066 80.1691 48.3587 77.726 52.602C75.7728 55.9976 73.7927 59.3777 71.786 62.742C71.034 64.0077 70.2659 65.2638 69.482 66.51C68.882 67.452 68.294 68.346 67.862 68.85C66.3121 70.6657 64.1044 71.7913 61.7245 71.9792C59.3447 72.1671 56.9877 71.4019 55.172 69.852C53.3563 68.3021 52.2307 66.0944 52.0428 63.7145C51.8549 61.3347 52.6201 58.9777 54.17 57.162C54.602 56.658 55.388 55.932 56.228 55.194C57.128 54.396 58.286 53.418 59.588 52.32C62.204 50.136 65.48 47.46 68.672 44.88C72.4793 41.8002 76.2993 38.7361 80.132 35.688L81.194 34.842Z" fill="url(#paint0_linear_322_2684)"/>
<defs>
<linearGradient id="paint0_linear_322_2684" x1="12.5" y1="12" x2="95.9797" y2="107.18" gradientUnits="userSpaceOnUse">
<stop stop-color="#9747FF"/>
<stop offset="1" stop-color="#44006D"/>
</linearGradient>
</defs>
</svg>
