<svg width="91" height="90" viewBox="0 0 91 90" fill="none" xmlns="http://www.w3.org/2000/svg">
<path d="M42.0833 26.25C42.0833 25.2554 42.4784 24.3016 43.1817 23.5984C43.8849 22.8951 44.8388 22.5 45.8333 22.5H64.5833C65.5779 22.5 66.5317 22.8951 67.235 23.5984C67.9382 24.3016 68.3333 25.2554 68.3333 26.25V45C68.3333 45.9946 67.9382 46.9484 67.235 47.6517C66.5317 48.3549 65.5779 48.75 64.5833 48.75C63.5888 48.75 62.6349 48.3549 61.9317 47.6517C61.2284 46.9484 60.8333 45.9946 60.8333 45V35.3025L40.9883 55.155C40.6397 55.5037 40.2257 55.7802 39.7702 55.9689C39.3146 56.1576 38.8264 56.2547 38.3333 56.2547C37.8402 56.2547 37.352 56.1576 36.8964 55.9689C36.4409 55.7802 36.027 55.5037 35.6783 55.155C35.3297 54.8063 35.0531 54.3924 34.8644 53.9369C34.6757 53.4813 34.5786 52.9931 34.5786 52.5C34.5786 52.0069 34.6757 51.5187 34.8644 51.0631C35.0531 50.6076 35.3297 50.1937 35.6783 49.845L55.5308 30H45.8333C44.8388 30 43.8849 29.6049 43.1817 28.9016C42.4784 28.1984 42.0833 27.2446 42.0833 26.25ZM16.8308 12.69C18.0965 8.9874 20.4885 5.77333 23.6718 3.49782C26.8551 1.2223 30.6703 -0.000716575 34.5833 3.14981e-07H72.0833C77.0561 3.14981e-07 81.8253 1.97544 85.3416 5.49175C88.8579 9.00806 90.8333 13.7772 90.8333 18.75V56.25C90.8333 64.485 85.5233 71.475 78.1433 74.0025V76.7325C78.1433 79.245 77.2658 82.455 75.2033 85.1025C73.0358 87.8925 69.5933 90 64.8758 90H21.6008C18.8677 90.019 16.158 89.4945 13.6293 88.4571C11.1006 87.4196 8.80338 85.89 6.87105 83.9569C4.93873 82.0239 3.40988 79.7261 2.37337 77.197C1.33686 74.668 0.813369 71.9581 0.833313 69.225V25.9725C0.833313 21.855 2.31081 18.4275 4.92831 16.05C7.47831 13.7325 10.8158 12.6975 14.1008 12.6975H16.8308V12.69ZM15.8333 20.19H14.1083C12.6011 20.1297 11.1254 20.6323 9.96831 21.6C9.08331 22.4025 8.33331 23.73 8.33331 25.965V69.2325C8.33331 76.68 14.1533 82.5075 21.6083 82.5075H64.8758C67.1183 82.5075 68.4308 81.6 69.2858 80.4975C70.1118 79.4109 70.5832 78.0964 70.6358 76.7325V75H34.5833C29.6105 75 24.8414 73.0246 21.3251 69.5083C17.8088 65.9919 15.8333 61.2228 15.8333 56.25V20.19ZM34.5833 7.5C31.5996 7.5 28.7381 8.68526 26.6284 10.795C24.5186 12.9048 23.3333 15.7663 23.3333 18.75V56.25C23.3333 59.2337 24.5186 62.0952 26.6284 64.205C28.7381 66.3147 31.5996 67.5 34.5833 67.5H72.0833C75.067 67.5 77.9285 66.3147 80.0383 64.205C82.148 62.0952 83.3333 59.2337 83.3333 56.25V18.75C83.3333 15.7663 82.148 12.9048 80.0383 10.795C77.9285 8.68526 75.067 7.5 72.0833 7.5H34.5833Z" fill="url(#paint0_linear_322_2693)"/>
<defs>
<linearGradient id="paint0_linear_322_2693" x1="0.832764" y1="0" x2="90.8333" y2="90.0005" gradientUnits="userSpaceOnUse">
<stop stop-color="#9747FF"/>
<stop offset="1" stop-color="#44006D"/>
</linearGradient>
</defs>
</svg>
