<svg width="109" height="49" viewBox="0 0 109 49" fill="none" xmlns="http://www.w3.org/2000/svg">
<path d="M23.6166 0.719966C23.916 0.976032 24.1621 1.28857 24.3407 1.63974C24.5193 1.9909 24.6271 2.37382 24.6577 2.76662C24.6883 3.15941 24.6413 3.5544 24.5193 3.92902C24.3973 4.30364 24.2027 4.65056 23.9466 4.94997L7.62058 24L23.9406 43.05C24.2144 43.3463 24.4256 43.6949 24.5616 44.0747C24.6976 44.4546 24.7555 44.858 24.732 45.2608C24.7084 45.6636 24.6039 46.0575 24.4246 46.4189C24.2453 46.7804 23.9949 47.102 23.6885 47.3644C23.382 47.6269 23.0258 47.8248 22.641 47.9464C22.2563 48.068 21.851 48.1107 21.4494 48.072C21.0478 48.0333 20.6581 47.914 20.3036 47.7212C19.9492 47.5284 19.6373 47.2661 19.3866 46.95L1.38658 25.95C0.921791 25.4066 0.666382 24.715 0.666382 24C0.666382 23.2849 0.921791 22.5934 1.38658 22.05L19.3866 1.04997C19.6426 0.750537 19.9552 0.504477 20.3064 0.32584C20.6575 0.147203 21.0404 0.0394878 21.4332 0.008844C21.826 -0.0217998 22.221 0.0252279 22.5956 0.147243C22.9703 0.269258 23.3172 0.463869 23.6166 0.719966ZM85.3866 43.05C84.8694 43.6547 84.6136 44.44 84.6755 45.2333C84.7374 46.0266 85.1119 46.7628 85.7166 47.28C86.3213 47.7971 87.1066 48.0529 87.8999 47.991C88.6932 47.9291 89.4294 47.5547 89.9466 46.95L107.947 25.95C108.411 25.4066 108.667 24.715 108.667 24C108.667 23.2849 108.411 22.5934 107.947 22.05L89.9466 1.04997C89.6905 0.750553 89.378 0.504508 89.0268 0.325883C88.6756 0.147257 88.2927 0.0395474 87.8999 0.00890408C87.5071 -0.0217393 87.1122 0.0252847 86.7375 0.147289C86.3629 0.269293 86.016 0.463888 85.7166 0.719966C85.4172 0.976043 85.1711 1.28859 84.9925 1.63975C84.8139 1.99092 84.7062 2.37383 84.6755 2.76662C84.6449 3.15941 84.6919 3.55439 84.8139 3.92901C84.9359 4.30363 85.1305 4.65055 85.3866 4.94997L101.719 24L85.3866 43.05ZM30.6666 30C32.2579 30 33.784 29.3678 34.9092 28.2426C36.0344 27.1174 36.6666 25.5913 36.6666 24C36.6666 22.4087 36.0344 20.8825 34.9092 19.7573C33.784 18.6321 32.2579 18 30.6666 18C29.0753 18 27.5492 18.6321 26.4239 19.7573C25.2987 20.8825 24.6666 22.4087 24.6666 24C24.6666 25.5913 25.2987 27.1174 26.4239 28.2426C27.5492 29.3678 29.0753 30 30.6666 30ZM60.6666 24C60.6666 25.5913 60.0344 27.1174 58.9092 28.2426C57.784 29.3678 56.2579 30 54.6666 30C53.0753 30 51.5492 29.3678 50.4239 28.2426C49.2987 27.1174 48.6666 25.5913 48.6666 24C48.6666 22.4087 49.2987 20.8825 50.4239 19.7573C51.5492 18.6321 53.0753 18 54.6666 18C56.2579 18 57.784 18.6321 58.9092 19.7573C60.0344 20.8825 60.6666 22.4087 60.6666 24ZM78.6666 30C80.2579 30 81.784 29.3678 82.9092 28.2426C84.0344 27.1174 84.6666 25.5913 84.6666 24C84.6666 22.4087 84.0344 20.8825 82.9092 19.7573C81.784 18.6321 80.2579 18 78.6666 18C77.0753 18 75.5492 18.6321 74.4239 19.7573C73.2987 20.8825 72.6666 22.4087 72.6666 24C72.6666 25.5913 73.2987 27.1174 74.4239 28.2426C75.5492 29.3678 77.0753 30 78.6666 30Z" fill="url(#paint0_linear_322_2691)"/>
<defs>
<linearGradient id="paint0_linear_322_2691" x1="0.666382" y1="-0.000244141" x2="36.4019" y2="80.261" gradientUnits="userSpaceOnUse">
<stop stop-color="#9747FF"/>
<stop offset="1" stop-color="#44006D"/>
</linearGradient>
</defs>
</svg>
