<svg width="97" height="85" viewBox="0 0 97 85" fill="none" xmlns="http://www.w3.org/2000/svg">
<path d="M20.996 16.26C27.8453 10.3046 36.4461 6.73921 45.5 6.102V15C45.5 15.7956 45.8161 16.5587 46.3787 17.1213C46.9413 17.6839 47.7043 18 48.5 18C49.2957 18 50.0587 17.6839 50.6213 17.1213C51.1839 16.5587 51.5 15.7956 51.5 15V6.108C61.0599 6.79339 70.0982 10.7265 77.1154 17.2548C84.1327 23.7832 88.7072 32.5144 90.08 42H78.5C77.7044 42 76.9413 42.3161 76.3787 42.8787C75.8161 43.4413 75.5 44.2043 75.5 45C75.5 45.7957 75.8161 46.5587 76.3787 47.1213C76.9413 47.6839 77.7044 48 78.5 48H90.5C90.4928 53.7976 89.3139 59.5339 87.0342 64.8645C84.7545 70.1951 81.4211 75.01 77.234 79.02C76.6826 79.5721 76.3679 80.3172 76.3568 81.0975C76.3458 81.8777 76.6391 82.6315 77.1746 83.199C77.7101 83.7665 78.4456 84.1031 79.2252 84.1372C80.0047 84.1714 80.7669 83.9005 81.35 83.382C86.1318 78.8116 89.9392 73.3208 92.5428 67.2401C95.1465 61.1594 96.4926 54.6147 96.5 48C96.5 35.2696 91.4429 23.0606 82.4411 14.0589C73.4394 5.05713 61.2304 0 48.5 0C35.7696 0 23.5606 5.05713 14.5589 14.0589C5.55713 23.0606 0.5 35.2696 0.5 48C0.5 61.77 6.62 74.64 15.878 83.382C16.1648 83.6523 16.502 83.8634 16.8704 84.0033C17.2388 84.1432 17.6312 84.2093 18.0251 84.1975C18.419 84.1858 18.8067 84.0967 19.1662 83.9351C19.5256 83.7736 19.8497 83.5428 20.12 83.256C20.3903 82.9692 20.6014 82.632 20.7413 82.2636C20.8812 81.8952 20.9472 81.5028 20.9355 81.1089C20.9238 80.715 20.8347 80.3273 20.6731 79.9678C20.5116 79.6084 20.2808 79.2843 19.994 79.014C11.87 71.34 6.5 60.018 6.5 48H18.5C19.2956 48 20.0587 47.6839 20.6213 47.1213C21.1839 46.5587 21.5 45.7957 21.5 45C21.5 44.2043 21.1839 43.4413 20.6213 42.8787C20.0587 42.3161 19.2956 42 18.5 42H6.92C8.06456 34.0369 11.481 26.5727 16.76 20.502L25.376 29.124C25.9393 29.6873 26.7033 30.0038 27.5 30.0038C28.2967 30.0038 29.0607 29.6873 29.624 29.124C30.1873 28.5607 30.5038 27.7967 30.5038 27C30.5038 26.2033 30.1873 25.4393 29.624 24.876L20.996 16.26ZM69.194 22.842C69.7392 22.409 70.4181 22.1791 71.1143 22.1917C71.8104 22.2044 72.4805 22.4588 73.0096 22.9113C73.5388 23.3638 73.8941 23.9863 74.0145 24.6721C74.135 25.3579 74.0132 26.0642 73.67 26.67L73.01 27.846C70.5971 32.1066 68.1691 36.3587 65.726 40.602C63.7728 43.9976 61.7927 47.3777 59.786 50.742C59.034 52.0077 58.2659 53.2638 57.482 54.51C56.882 55.452 56.294 56.346 55.862 56.85C54.3121 58.6657 52.1044 59.7913 49.7245 59.9792C47.3447 60.1671 44.9877 59.4019 43.172 57.852C41.3563 56.3021 40.2307 54.0944 40.0428 51.7145C39.8549 49.3347 40.6201 46.9777 42.17 45.162C42.602 44.658 43.388 43.932 44.228 43.194C45.128 42.396 46.286 41.418 47.588 40.32C50.204 38.136 53.48 35.46 56.672 32.88C60.4793 29.8002 64.2993 26.7361 68.132 23.688L69.194 22.842Z" fill="url(#paint0_linear_322_2685)"/>
<defs>
<linearGradient id="paint0_linear_322_2685" x1="0.5" y1="0" x2="83.9797" y2="95.1801" gradientUnits="userSpaceOnUse">
<stop stop-color="#9747FF"/>
<stop offset="1" stop-color="#44006D"/>
</linearGradient>
</defs>
</svg>
