<svg width="826" height="495" viewBox="0 0 826 495" fill="none" xmlns="http://www.w3.org/2000/svg">
<path d="M37.6368 0H-49.9855C-63.537 0 -73.1654 13.193 -69.0329 26.099L76.659 481.099C79.3109 489.381 87.0103 495 95.7064 495H112.897C120.395 495 127.264 490.806 130.689 484.135L277.61 198L432.44 484.508C435.933 490.972 442.689 495 450.036 495H461.195C469.804 495 477.446 489.491 480.169 481.325L631.835 26.3246C636.152 13.3739 626.513 0 612.862 0H518.939C510.131 0 502.361 5.76157 499.802 14.1891L429.11 247L309.169 10.9404C305.758 4.2282 298.867 0 291.339 0H265.75C258.29 0 251.45 4.1517 248.007 10.7695L125.11 247L56.8272 14.3672C54.3273 5.85027 46.5131 0 37.6368 0Z" fill="#44006D" fill-opacity="0.2"/>
<path d="M876.11 392C876.11 448.885 829.995 495 773.11 495C716.225 495 670.11 448.885 670.11 392C670.11 335.115 716.225 289 773.11 289C829.995 289 876.11 335.115 876.11 392Z" fill="#44006D" fill-opacity="0.2"/>
</svg>
