<svg width="147" height="49" viewBox="0 0 147 49" fill="none" xmlns="http://www.w3.org/2000/svg">
<path d="M56.2732 42.807C50.8345 39.2976 43.4293 38.6793 31.4728 41.9969C18.7462 45.0054 14.5012 46.8946 8.94801 43.0389C6.82692 41.1496 6.05406 38.1011 6.59506 33.7044C7.90607 26.5682 11.5328 19.6668 17.8961 12.067C21.4455 8.09387 24.7603 4.69899 29.1198 3.31069C32.4746 2.4634 32.1655 5.08542 31.7418 5.47186C31.3182 5.47186 30.5854 5.54914 30.0444 5.8955C29.5807 6.24186 28.347 7.36108 28.3097 8.90395C28.2325 11.2168 30.6226 10.756 31.6646 9.48217C32.7838 8.0538 34.4411 5.31728 33.1301 2.73247C32.5891 1.8079 31.6646 1.1896 30.468 0.957745C26.4577 0.725885 22.7537 2.61511 19.3216 4.7362C11.8019 9.94303 5.8222 17.1937 2.42731 25.0998C0.460798 29.883 -1.31393 36.71 1.34816 42.2631C3.39196 46.1189 7.67422 48.1656 12.7637 47.739C16.3504 47.3526 20.6326 46.1962 23.5638 45.5035C26.4577 44.8079 41.3426 39.6783 46.203 48.5892C46.203 48.5892 47.8232 45.4262 51.8736 45.389C55.1912 45.0798 60.0116 46.3536 63.5209 48.9384C62.3674 47.2038 59.0498 44.6218 56.2732 42.807Z" fill="#E61A27"/>
<path d="M33.0155 12.9943C30.2389 11.1823 24.6457 14.6516 20.1716 20.6313C16.084 25.9927 14.3093 32.2415 16.2386 35.0954C19.0925 38.4903 24.4138 33.5525 26.6522 30.9305L26.9614 30.6213C28.5043 28.964 29.7008 26.9946 30.8171 25.0682C30.8171 25.0682 31.8591 23.3335 31.9364 23.2562C32.5919 23.1417 33.3647 22.9471 34.2492 22.678C34.2492 22.7152 30.8543 28.3858 31.2036 31.2024C31.3181 32.0497 31.2408 35.2127 34.2893 36.1402C38.3769 36.8358 41.6172 33.6727 44.5112 30.8561C44.5112 30.8561 45.0121 30.3923 45.2812 30.1233C45.2039 30.3923 45.1266 30.7788 45.1266 30.7788C43.9301 34.9437 45.5503 35.7938 46.555 36.1402C49.6006 37.0275 53.2274 32.5907 53.2646 32.5907C53.1873 33.979 52.8782 35.1354 54.3438 36.0629C55.732 36.5638 57.1203 35.7938 58.1995 35.0982C62.0552 32.3989 65.141 28.1568 67.6485 24.4928H66.0684C66.0684 24.4928 62.1354 30.1633 59.5878 31.3971C59.5878 31.3971 59.1241 31.6289 58.855 31.4343C58.5086 31.1652 58.6632 30.587 58.855 30.1605C58.855 30.1233 68.6904 13.1145 68.6904 13.1145H64.0647C64.0647 13.1145 63.5638 13.9246 63.5237 14.0019C63.4865 13.9646 63.4092 13.8473 63.3691 13.77C60.5152 9.79689 53.9974 15.8911 49.0997 22.9871C47.2105 25.7265 44.8175 28.7722 42.35 30.9706C42.35 30.9706 38.6861 34.3654 37.106 31.9352C36.5278 30.9334 36.7195 29.4277 37.0287 28.463C38.8807 23.2562 42.0037 18.5131 45.6304 15.6592C46.6323 14.8892 47.7515 14.6574 48.2925 14.9636C48.8335 15.2699 48.9108 16.0428 48.5616 16.5437C47.7143 16.5065 47.0588 16.7756 46.5178 17.3538C45.4386 18.473 45.0522 19.5522 45.3985 20.5941C47.0559 22.9471 50.3735 18.2812 50.2189 15.4646C50.1817 14.4627 49.6006 13.4981 48.7906 12.9971C47.5941 12.2643 45.7449 12.4561 44.5484 13.0343C42.9683 13.6526 40.4207 15.7336 38.9551 17.3939C37.1031 19.4377 33.9029 21.7133 32.901 21.4815C33.1329 20.554 35.8322 15.0381 33.0155 12.9943ZM55.3485 21.1323C56.2358 19.8985 58.8579 16.5437 59.5134 16.0027C61.6745 14.1135 62.5218 14.9608 62.5991 15.539C60.5925 19.1257 58.2396 23.2534 56.004 26.9545L55.3084 27.9965C54.3438 29.4993 53.3419 30.773 51.7217 31.6976C51.4899 31.7749 51.1034 31.7749 50.8744 31.6203C50.5653 31.4286 50.4508 31.0793 50.488 30.733C50.5252 29.5393 51.7217 26.0299 55.3485 21.1323ZM30.1244 23.2906C30.1244 23.2906 30.0872 23.4051 30.0471 23.4451L28.0405 26.7227C26.8068 28.3428 25.3012 30.3866 23.4119 31.3513C22.8337 31.5431 22.0608 31.6604 21.6773 31.1595C20.83 30.1576 21.2536 28.7693 21.6401 27.6501L21.7546 27.2637C22.7564 24.5243 24.3766 22.1341 25.9195 19.8585C25.9567 19.8585 25.9967 19.8213 25.9967 19.8213C25.9967 19.8213 25.9967 19.8213 25.9967 19.8585C26.9614 21.7477 28.8134 22.5978 30.1616 23.0215C30.1616 23.0215 30.1616 23.0215 30.1616 23.0587C30.2017 23.1388 30.2017 23.1761 30.1244 23.2906ZM32.0509 19.4348C32.0509 19.472 31.1635 21.5187 31.1635 21.5187C31.049 21.6332 30.8171 21.5559 30.5853 21.5187L30.1988 21.4414C28.9651 21.055 28.0005 20.2077 27.7314 19.243C27.345 17.3137 28.9651 15.8109 29.6979 15.2327C30.3935 14.7318 31.4726 14.4999 32.1281 15.0009C32.5146 15.4646 32.6692 16.0428 32.6692 16.6983C32.6291 17.5456 32.36 18.5102 32.0509 19.4348Z" fill="#E61A27"/>
<path d="M90.6 25.6439C90.1362 24.6792 89.0972 24.0638 87.9779 24.1411C84.314 24.4874 80.7273 27.4959 78.8381 31.8153C77.8362 34.0509 77.2952 35.8657 76.9489 38.7969C78.1053 37.4859 80.421 35.3247 83.0431 34.1311C83.0431 34.1311 83.3894 31.3144 85.2414 28.847C85.937 27.805 87.3253 26.1476 88.8682 26.6114C90.2193 27.0751 89.7555 30.8535 87.9436 34.4803C86.5925 37.1796 84.5487 39.8417 82.4677 41.6937C80.6157 43.2366 77.9164 45.1258 75.5634 43.6602C74.0606 42.7729 73.3278 40.9208 73.4795 38.5307C74.2123 31.7438 77.258 25.9959 81.6948 19.438C86.2462 13.3438 91.2612 7.05786 98.008 3.74026C99.3963 3.04468 100.67 2.89296 101.749 3.31661C101.749 3.31661 95.4232 6.78878 92.3776 13.2665C91.6076 14.8867 90.5255 17.1223 91.6076 19.0917C92.1858 20.0935 93.1504 20.2109 93.9605 20.1336C97.6617 19.2863 100.055 15.8141 102.021 12.6511C103.14 10.261 104.182 7.86793 104.182 5.2087C104.182 4.89955 104.182 4.47591 104.145 4.12955C105.92 3.20498 109.544 4.86234 109.544 4.86234C112.398 5.78692 118.415 10.4155 120.458 11.3029C121.46 10.1465 123.08 8.40894 124.008 7.52444L122.657 6.71436C120.536 5.40335 118.26 4.16963 116.062 2.97311C111.009 0.233733 106.922 1.19838 104.838 1.93118C104.028 2.24032 103.258 2.47218 103.258 2.47218C101.715 0.77474 99.1702 0.929316 97.3182 1.39304C90.6086 3.32234 84.3598 8.02823 77.6473 16.2034C72.7095 22.6068 69.6639 28.1199 68.0437 33.5987C66.7699 37.2626 66.4236 42.6612 69.4721 45.8643C72.0569 48.6037 75.5262 47.9854 77.9564 47.0208C83.2406 44.436 87.9837 38.8055 90.3366 32.3649C90.9463 30.427 91.5646 27.7277 90.6 25.6439ZM102.748 5.43484C102.053 13.4583 95.8068 18.1614 94.2639 18.5478C93.3393 18.7396 91.7192 18.3159 93.1447 14.9611C95.2286 10.4098 98.8153 6.59127 102.671 4.62476C102.748 4.93391 102.748 5.12569 102.748 5.43484Z" fill="#E61A27"/>
<path d="M139.697 6.47653C136.342 8.36576 132.87 9.59948 128.665 9.17583C127.509 10.4868 126.352 11.8379 125.31 13.2262C131.213 14.729 137.459 11.3742 140.968 8.21118C144.672 5.01094 146.561 0.960551 146.561 0.960551C146.561 0.960551 143.785 4.12358 139.697 6.47653Z" fill="#E61A27"/>
<path d="M76.3277 13.149H71.931L69.4635 17.1593H73.8603L76.3277 13.149Z" fill="#E61A27"/>
<path d="M128.665 43.1934C128.201 43.5025 127.546 43.2707 127.778 42.5379C128.396 40.6486 130.863 36.8301 130.863 36.8301L137.727 24.6818H133.022C132.79 25.0281 132.326 25.8783 132.326 25.8783C132.094 25.5319 131.479 24.7219 131.207 24.5272C130.05 23.7944 128.39 24.1408 127.234 24.7963C122.181 27.7275 118.517 33.5898 115.586 38.101C115.586 38.101 112.541 43.1533 110.843 43.5397C109.532 43.6542 109.647 41.8824 109.724 41.4559C110.225 38.4474 111.421 35.5935 112.618 33.0087C115.048 31.3113 117.825 29.1129 120.369 26.6827C125.845 21.4386 130.474 15.499 131.17 14.1851C131.17 14.1851 130.437 14.3397 129.589 14.3769C125.385 20.2793 116.746 28.8009 114.124 30.0747C115.28 27.2981 122.762 13.9533 129.166 7.59L130.168 6.62535C131.711 5.12255 133.331 3.5396 134.564 3.30774C134.679 3.30774 134.874 3.30774 135.028 3.61689C135.065 4.8134 134.642 5.66069 134.141 6.66256L133.445 8.12814C133.445 8.12814 134.447 7.93635 135.103 7.74171C135.873 6.31333 136.723 4.69604 136.414 2.76674C136.299 2.14844 135.873 1.68759 135.294 1.57023C133.405 1.22387 131.321 2.61216 129.664 3.7686L129.587 3.80581C121.025 10.5154 113.774 20.1963 107.448 33.4266C106.985 33.773 105.213 34.1966 104.904 34.0048C105.522 32.731 106.332 30.9964 106.715 29.1072C106.793 28.5662 106.83 28.028 106.83 27.487C106.83 26.3306 106.561 25.2514 105.519 24.4786C104.322 23.8603 102.82 24.1694 101.818 24.5931C97.3066 26.4823 93.9117 31.1109 91.4814 34.9294C90.1704 37.3597 88.8594 39.9445 88.5131 42.9529C88.244 45.2658 88.7821 46.7714 90.0932 47.5415C91.4442 48.237 93.1789 47.5042 93.8344 47.155C98.4229 44.7248 101.626 39.9044 104.134 35.4676C104.248 35.4676 105.599 35.4304 106.641 35.1584H106.678C106.601 35.3502 106.06 36.9704 106.06 36.9704C104.48 41.6763 103.707 44.8393 105.25 46.7285C107.411 49.3906 110.998 46.6512 113.889 42.9873C113.271 47.3468 115.546 48.0395 117.244 47.6932C119.21 47.1522 121.449 45.0311 122.45 43.9519C122.104 45.2257 122.219 47.5014 124.031 47.7304C125.264 47.9622 126.192 47.2667 127.271 46.7285C131.127 44.6446 135.718 37.6659 136.912 35.6594H135.332C133.525 38.2184 131.367 41.6133 128.665 43.1934ZM94.1865 42.7296C93.9546 42.3833 93.8773 41.9596 93.8401 41.5331C93.8029 38.9111 96.6167 34.2052 98.6233 31.6204C99.4706 33.4724 101.363 34.6289 102.479 35.1298C101.091 38.2957 96.1902 45.0826 94.1865 42.7296ZM103.289 33.7444C103.135 33.8217 100.782 33.0488 100.321 30.8132C99.9343 28.924 101.245 27.4183 102.519 26.6855C103.06 26.2619 103.87 26.1073 104.486 26.3392C105.027 26.7256 105.181 27.3811 105.181 28.1139C105.181 28.5375 105.104 29.0013 105.067 29.4249V29.5022C104.637 30.9678 104.059 32.4334 103.289 33.7444ZM122.456 41.8824L121.992 42.2688C121.337 42.847 120.681 43.4653 119.871 43.1561C119.64 43.0789 119.485 42.7697 119.448 42.5379C119.411 40.8805 120.143 39.3748 120.876 37.872L121.068 37.4856C123.152 34.0134 125.542 29.9659 129.091 27.112C129.67 26.6884 130.325 26.3019 131.021 26.6111C131.175 26.7657 131.367 26.9975 131.367 27.2666C131.367 27.3439 131.29 27.5757 131.253 27.613C130.251 29.193 129.323 30.8905 128.399 32.5106C126.621 35.7109 124.772 38.9884 122.456 41.8824Z" fill="#E61A27"/>
</svg>
