<svg width="193" height="25" viewBox="0 0 193 25" fill="none" xmlns="http://www.w3.org/2000/svg">
<path fill-rule="evenodd" clip-rule="evenodd" d="M41.8416 4.67946C35.5961 4.67946 31.6671 9.02647 31.6671 15.1036C31.6671 20.9622 36.0069 24.9036 41.8416 24.9036C47.0043 24.9036 51.0415 21.9579 51.6024 16.8366H45.4339C45.1327 18.8642 44.01 20.1146 41.8039 20.1146C39.11 20.1146 38.0266 17.5746 38.0266 15.1036C38.0266 12.454 38.5875 9.4677 42.1406 9.4677C43.7473 9.4677 45.2067 10.6143 45.2467 12.2334H51.4137C50.9682 7.18534 46.6676 4.67946 41.8416 4.67946ZM109.986 4.67873C107.233 4.67873 105.298 5.92478 104.14 7.92992H104.062V5.23245H97.8941V24.352H104.251V14.4243C104.251 11.6332 105.472 9.83273 107.69 9.83346C110.99 9.83346 110.871 12.4881 110.871 15.1021V24.352H117.23V12.0824C117.23 9.31893 116.457 4.67873 109.986 4.67873ZM128.545 4.67873C126.337 4.67873 124.094 5.04884 122.372 6.00823C120.652 6.99956 119.455 8.62225 119.344 11.1267H125.291C125.591 9.50616 126.712 8.73473 128.47 8.73473C129.78 8.73473 131.536 9.28192 131.536 10.7188C131.536 11.9017 130.937 12.2668 129.854 12.4896C125.441 13.3713 118.559 12.8945 118.559 19.1175C118.559 23.0617 121.476 24.9021 125.176 24.9021C127.498 24.9021 129.931 24.2396 131.574 22.5465C131.651 23.1728 131.723 23.7599 131.947 24.352H138.345C137.597 22.8418 137.598 21.0718 137.598 19.4499V11.0868C137.598 5.67513 133.143 4.67873 128.545 4.67873H128.545ZM131.463 15.3989C131.612 19.3425 130.6 21.0341 127.572 21.0341C126.15 21.0341 124.917 20.4063 124.917 18.8635C124.917 17.3504 126.116 16.7604 127.536 16.4302C128.922 16.0622 130.566 15.9541 131.462 15.3997L131.463 15.3989ZM139.673 0.971073V24.3535H146.031V0.970347L139.673 0.971073ZM161.165 0.971073V7.2971H161.086C159.778 5.56555 157.945 4.68091 155.552 4.68091C150.052 4.68091 147.362 9.39586 147.362 14.3684C147.362 19.7467 149.943 24.9036 156.038 24.9036C158.282 24.9036 160.153 23.9464 161.387 22.1408H161.46V24.3528H167.522V0.971073H161.165ZM157.609 9.46915C160.376 9.46915 161.387 12.0128 161.387 14.7741C161.387 17.2038 160.714 20.1146 157.609 20.1146C154.691 20.1146 153.721 17.2045 153.721 14.5898C153.721 12.1601 154.691 9.46915 157.609 9.46915ZM168.848 0.971073V7.29565H171.824L174.795 0.971073H168.848ZM52.9319 0.971073V24.3535H63.1398C70.3534 24.3535 74.7751 20.2264 74.7751 12.5665C74.7751 5.32607 70.4187 0.971073 63.1398 0.971073H52.9319ZM59.7072 6.39214H62.5636C66.2582 6.39214 67.9143 8.82472 67.9143 12.5483C67.9143 16.6443 66.5789 18.9346 62.5636 18.9346H59.7072V6.39214ZM4.90436 0.938416L0 24.3528H7.00239L8.80723 15.0542C9.00032 14.0268 9.16463 12.9942 9.29999 11.9576H9.37039C9.48069 12.605 9.7659 13.8866 10.0526 14.9802L12.5969 24.3528H19.5565L22.0965 14.9802C22.386 13.8866 22.6698 12.605 22.7786 11.9576H22.8534C22.9151 12.4547 23.1103 13.8568 23.3447 15.0542L25.1495 24.3528H32.1505L27.2468 0.938416H19.8257L16.8525 12.6986C16.6036 13.6101 16.2966 15.0862 16.1108 15.8561H16.0411C15.8524 15.0862 15.5476 13.6101 15.2994 12.6986L12.3248 0.938416L4.90436 0.938416ZM86.3161 4.67946C80.0489 4.67946 76.101 9.06493 76.101 14.8089C76.101 20.5544 80.0474 24.9384 86.3147 24.9384C92.5826 24.9384 96.5269 20.5551 96.5269 14.8089C96.5269 9.06493 92.5834 4.67946 86.3161 4.67946ZM86.3147 9.4677C89.0629 9.4677 90.166 11.7486 90.166 14.8089C90.166 17.8722 89.0637 20.1502 86.3154 20.1502C83.5649 20.1502 82.4619 17.8722 82.4619 14.8089C82.4619 11.7479 83.5642 9.4677 86.3147 9.4677ZM182.357 4.67728C178.594 4.67728 173.445 5.92913 173.445 10.5352C173.445 15.6929 178.557 15.801 182.507 16.7967C183.612 17.0565 185.571 17.3489 185.57 18.8236C185.57 20.336 183.834 20.8512 182.616 20.8512C181.73 20.8512 180.965 20.6299 180.376 20.1872C179.748 19.7068 179.343 19.005 179.343 18.05H173.277C173.462 23.3941 178.114 24.9021 182.654 24.9021C186.974 24.9021 192.011 23.2069 192.011 18.0877C192.011 16.5035 191.017 13.703 187.14 12.9272C184.26 12.3045 179.887 11.9736 179.887 10.168C179.887 8.83996 181.549 8.72965 182.58 8.72965C183.357 8.72965 183.974 8.8777 184.491 9.20862C185.007 9.541 185.304 10.0555 185.304 10.8661H191.181C190.961 5.89357 186.567 4.67728 182.357 4.67728Z" fill="black"/>
</svg>
