<svg width="209" height="49" viewBox="0 0 209 49" fill="none" xmlns="http://www.w3.org/2000/svg">
<path fill-rule="evenodd" clip-rule="evenodd" d="M53.9079 32.1596H58.7182C60.595 32.1596 61.3087 32.8072 61.3087 34.3935C61.3087 35.9209 60.5946 36.5678 58.7182 36.5678H53.9079V32.1596ZM46.4558 48.2034H53.9082V41.6795H61.8906C67.1756 41.6795 69.0784 38.5662 69.0784 34.5411C69.0784 29.8687 67.1218 27.2248 61.8368 27.2248H46.4558V48.2034ZM71.5361 27.2248H91.5935V32.3361H78.9885V35.157H90.6964V40.2705H78.9885V43.091H91.5935V48.2034H71.5361V27.2248ZM102.165 32.1596H106.975C108.852 32.1596 109.566 32.8072 109.566 34.3935C109.566 35.9209 108.852 36.5678 106.975 36.5678H102.165V32.1596ZM94.7129 48.2034H102.165V41.6795H110.146C115.433 41.6795 117.336 38.5662 117.336 34.5411C117.336 29.8687 115.379 27.2248 110.093 27.2248H94.7129V48.2034ZM124.549 39.3005C120.903 38.6825 119.397 36.332 119.397 33.3946C119.397 27.958 124.181 26.4902 130.311 26.4902C138.714 26.4902 142.176 28.928 142.441 33.3654H133.772C133.772 32.513 133.323 31.9831 132.637 31.6896C131.976 31.3672 131.131 31.2499 130.311 31.2499C128.091 31.2499 127.325 31.8661 127.325 32.7484C127.325 33.335 127.562 33.7184 128.302 33.8354L137.208 35.3039C140.961 35.9208 143.287 37.8601 143.287 41.4145C143.287 46.5288 139.534 48.938 131.156 48.938C125.422 48.938 119.158 48.0569 119.132 41.8863H128.117C128.143 42.5906 128.382 43.0607 128.911 43.3841C129.464 43.6783 130.284 43.8256 131.447 43.8256C133.772 43.8256 134.407 43.1199 134.407 42.1206C134.407 41.5037 134.063 40.8871 133.061 40.7116L124.549 39.3005ZM145.717 27.2248H153.17V48.2034H145.717V27.2248ZM180.788 40.0351C180.313 42.7971 179.466 45.0303 177.616 46.5576C175.793 48.0857 172.938 48.938 168.394 48.938C163.875 48.938 155.497 48.5846 155.497 37.7146C155.497 26.8425 163.875 26.4898 168.394 26.4898C172.885 26.4898 179.81 27.1356 180.788 35.4519H172.384C172.173 33.952 171.273 31.778 168.394 31.778C165.353 31.778 163.424 33.4527 163.424 37.7143C163.424 41.9748 165.301 43.6484 168.023 43.6484C170.375 43.6484 171.776 42.5614 172.384 40.0348L180.788 40.0351ZM190.539 37.715C190.539 33.4531 192.469 31.7788 195.509 31.7788C198.547 31.7788 200.478 33.4534 200.478 37.715C200.478 41.9755 198.547 43.6491 195.509 43.6491C192.469 43.6487 190.539 41.9751 190.539 37.715ZM182.61 37.715C182.61 48.5846 190.988 48.9384 195.508 48.9384C200.028 48.9384 208.405 48.585 208.405 37.715C208.405 26.8429 200.028 26.4902 195.508 26.4902C190.988 26.4902 182.61 26.8425 182.61 37.715ZM35.1949 27.4327C35.6761 17.3678 26.9963 6.03316 15.1631 4.63213L15.1833 4.49459C26.849 4.49459 35.792 15.2942 35.792 23.8141C35.7808 25.5877 35.6407 26.6865 35.3909 27.4843L35.1949 27.4327ZM34.488 28.7121C33.7119 29.6604 32.7358 30.6153 31.5921 31.5217C29.4882 19.4215 20.5965 8.84064 14.3101 5.7523L14.1754 5.84616C20.4976 11.0348 28.0381 21.112 30.9705 31.9964C29.4747 33.0952 27.859 34.0205 26.1544 34.7545C20.1886 27.9511 14.6267 14.8303 12.8343 6.50426L12.652 6.55913C12.6925 14.6411 18.4305 28.3612 25.4281 35.0559C23.8232 35.691 22.1547 36.152 20.4514 36.4309C13.7437 33.7736 8.96913 25.2628 8.96913 16.5443C8.96913 10.8528 10.7044 7.33203 11.0402 6.61148L10.8972 6.5548C10.4911 7.16922 7.94895 10.6882 7.94895 16.8328C7.94895 26.6876 12.8091 34.2202 19.2615 36.5923C16.9541 36.8461 14.6212 36.7366 12.3477 36.2678L12.2997 36.4179C12.9899 36.6721 15.3317 37.6551 18.9041 37.6551C26.9843 37.6551 32.4466 32.6347 34.6454 28.8186L34.488 28.7121Z" fill="#28458E"/>
<path fill-rule="evenodd" clip-rule="evenodd" d="M18.0962 0.938416C11.9708 0.938416 4.78842 5.35919 4.78842 9.40019C4.78842 10.9633 6.21833 12.2838 9.17778 12.2838C16.0479 12.2838 22.4307 7.5638 22.4307 3.89354C22.4307 1.9622 20.5759 0.938416 18.0962 0.938416ZM20.5416 3.77946C20.5416 6.87321 14.6007 10.655 9.63445 10.655C7.4403 10.655 6.25479 9.79152 6.25479 8.36666C6.25479 5.22851 12.2632 1.51096 16.9215 1.51096C19.9586 1.51096 20.5416 3.05639 20.5416 3.77946Z" fill="#0096D6"/>
<path fill-rule="evenodd" clip-rule="evenodd" d="M2.34806 11.2712C2.17587 11.5691 1.48636 12.9192 1.48636 14.3025C1.48636 16.8681 4.07868 19.25 8.84674 19.25C18.0193 19.25 28.6168 12.4983 28.6168 6.231C28.6168 3.41775 25.9537 1.8882 24.1047 1.57197L24.07 1.68171C24.6451 1.86365 26.7519 2.84304 26.7519 5.34908C26.7519 10.3428 17.3952 17.1468 8.07493 17.1468C4.50683 17.1468 2.2589 15.3855 2.2589 12.8199C2.2589 12.0084 2.42784 11.4738 2.47261 11.3189L2.34806 11.2712Z" fill="#EB7B30"/>
<path fill-rule="evenodd" clip-rule="evenodd" d="M32.3986 6.69957C32.6502 6.89054 34.161 8.1497 34.161 10.5308C34.161 18.6497 21.4401 26.6331 10.194 26.6331C3.48737 26.6331 0.430084 23.3217 0.565458 20.3814H0.68567C0.948476 21.9084 3.12601 24.6408 8.99583 24.6408C20.2561 24.6408 32.8285 16.3801 32.8285 9.14244C32.8285 7.90097 32.4913 7.12736 32.3007 6.78333L32.3986 6.69957Z" fill="#00984A"/>
<path fill-rule="evenodd" clip-rule="evenodd" d="M36.6504 14.2791C36.7031 14.452 36.9771 15.2292 36.9771 16.4465C36.9771 25.4779 24.1035 33.2098 12.9072 33.2098C7.14462 33.2098 4.13534 30.4106 3.49999 29.2738L3.60251 29.198C5.19703 30.5925 8.33771 31.6521 12.0029 31.6521C21.8914 31.6521 36.6464 24.1289 36.5146 14.3119L36.6504 14.2791Z" fill="#DF002C"/>
</svg>
