<svg width="138" height="25" viewBox="0 0 138 25" fill="none" xmlns="http://www.w3.org/2000/svg">
<path fill-rule="evenodd" clip-rule="evenodd" d="M135.541 20.3195C135.262 20.3143 134.985 20.3647 134.726 20.4678C134.467 20.5708 134.231 20.7245 134.032 20.9198C133.833 21.1151 133.675 21.3481 133.567 21.6052C133.459 21.8623 133.404 22.1383 133.404 22.4171C133.404 22.6959 133.459 22.9719 133.567 23.229C133.675 23.4861 133.833 23.7191 134.032 23.9144C134.231 24.1097 134.467 24.2634 134.726 24.3664C134.985 24.4695 135.262 24.5199 135.541 24.5147C135.817 24.5144 136.089 24.4598 136.344 24.3539C136.598 24.248 136.829 24.093 137.023 23.8977C137.218 23.7024 137.372 23.4706 137.476 23.2157C137.581 22.9609 137.634 22.6878 137.633 22.4123C137.633 22.1375 137.579 21.8654 137.474 21.6115C137.369 21.3576 137.215 21.1269 137.021 20.9325C136.826 20.7382 136.596 20.584 136.342 20.4788C136.088 20.3737 135.816 20.3195 135.541 20.3195ZM135.541 24.2624C135.298 24.2627 135.058 24.215 134.834 24.122C134.609 24.0291 134.406 23.8928 134.234 23.7208C134.063 23.5489 133.927 23.3448 133.835 23.1203C133.742 22.8957 133.695 22.6551 133.696 22.4123C133.696 22.1703 133.744 21.9307 133.837 21.7072C133.93 21.4837 134.066 21.2807 134.237 21.1098C134.408 20.9389 134.612 20.8035 134.836 20.7113C135.059 20.6191 135.299 20.572 135.541 20.5726C135.783 20.5726 136.022 20.6202 136.245 20.7126C136.468 20.8051 136.671 20.9406 136.842 21.1115C137.013 21.2823 137.148 21.4851 137.24 21.7083C137.333 21.9315 137.38 22.1708 137.38 22.4123C137.381 22.6547 137.335 22.8949 137.243 23.1191C137.151 23.3434 137.016 23.5473 136.845 23.7192C136.674 23.8911 136.471 24.0275 136.247 24.1207C136.023 24.214 135.783 24.2621 135.541 24.2624Z" fill="black"/>
<path fill-rule="evenodd" clip-rule="evenodd" d="M136.617 21.8628C136.617 21.665 136.53 21.4568 136.355 21.3575C136.178 21.253 135.981 21.2427 135.783 21.2427H134.761V23.5871H135.048V22.5058H135.575L136.244 23.5871H136.585L135.877 22.5058C136.294 22.494 136.617 22.3241 136.617 21.8628ZM135.487 22.2799H135.047V21.4509H135.716C136.007 21.4509 136.327 21.495 136.327 21.8577C136.327 22.3351 135.816 22.2799 135.487 22.2799ZM123.245 10.5286L127.534 5.94939C127.783 5.61321 127.906 5.37782 127.906 5.17626C127.906 4.84009 127.617 4.70547 126.708 4.70547H125.626V1.81453H137.338V4.70547H135.799C134.022 4.70547 133.692 4.97397 131.212 8.10031L124.428 15.427V19.898C124.428 21.0419 125.005 21.4443 126.659 21.4443H129.22V24.2337H112.815V21.4443H115.377C117.029 21.4443 117.608 21.0419 117.608 19.898V15.427L109.617 6.58716C108.296 5.04165 108.479 4.70547 104.802 4.70547V1.81453H119.638V4.70547H118.582C117.507 4.70547 117.052 4.90703 117.052 5.31014C117.052 5.64705 117.382 5.91555 117.589 6.18405L121.631 10.5904C122.112 11.0898 122.698 11.1546 123.245 10.5286ZM23.7049 1.81379H27.2837V9.88049H23.9786C23.6858 8.26803 22.6765 7.64055 21.7563 6.7946C20.096 5.26895 16.5004 3.99855 13.4763 3.99855C9.57312 3.99855 6.27906 5.20936 6.27906 6.98954C6.27906 11.9314 28.6011 7.99879 28.6011 17.3425C28.6011 22.2159 23.8197 24.9384 15.2329 24.9384C12.2603 24.9384 7.76204 24.016 5.10796 22.6065C4.27599 22.1262 3.9229 23.0611 3.76695 24.233H0.0977273V15.897H3.4168C4.14873 18.0149 5.15725 18.4511 6.08485 19.2919C7.69437 20.7712 11.5254 21.8474 15.0387 21.8128C20.3358 21.7606 22.1572 20.6027 22.1572 18.9219C22.1572 17.2417 20.3557 16.8379 14.551 15.9309L9.6224 15.1239C4.06046 14.2831 0.0109253 13.0399 0.0109253 8.60347C0.0109253 3.99855 5.13371 1.1076 13.2335 1.1076C16.6467 1.1076 19.5024 1.56368 22.2433 3.11288C23.0024 3.60647 23.7145 3.66532 23.7049 1.81379ZM93.5466 15.3196L93.6173 6.35397C93.6173 5.17773 93.0052 4.77462 91.2567 4.77462H89.2021V1.98519H102.274V4.77462H100.57C98.8202 4.77462 98.2082 5.17847 98.2082 6.35397V24.4036L93.092 24.3632L76.5232 8.67335V20.0679C76.5232 21.2111 77.1352 21.6473 78.8837 21.6473H81.1582V24.4036H67.5826V21.6473H69.8321C71.5806 21.6473 72.1926 21.2103 72.1926 20.0679V6.35397C72.1926 5.17773 71.5806 4.77462 69.8321 4.77462H67.5826V1.98519H79.3199L93.5466 15.3196ZM49.7609 0.938416C39.3432 0.938416 32.8221 5.54406 32.8221 12.9377C32.8221 20.1989 39.2528 24.7692 49.4432 24.7692C60.2669 24.7692 66.563 20.2658 66.563 12.5684C66.5637 5.64484 59.7696 0.938416 49.7609 0.938416ZM49.5241 21.8459C43.7576 21.8459 40.443 18.518 40.443 12.77C40.443 7.15726 43.9018 3.82936 49.8124 3.82936C55.4825 3.82936 58.7972 7.22493 58.7972 13.0061C58.7972 18.6526 55.434 21.8459 49.5241 21.8459Z" fill="black"/>
</svg>
